<svg width="14" height="8" viewBox="0 0 14 8" fill="none" xmlns="http://www.w3.org/2000/svg">
<path d="M10.5538 3.82341C13.7434 0.649853 14 0.384864 14 0.290226C14 0.145113 13.8543 -1.26862e-08 13.7086 -2.53723e-08C13.6136 -3.36459e-08 13.357 0.246061 10.3036 3.28712L7 6.57739L3.69638 3.28712C0.642986 0.24606 0.386425 -1.18533e-06 0.291403 -1.1936e-06C0.145701 -1.20629e-06 -1.27376e-08 0.145112 -2.54752e-08 0.290224C-3.37824e-08 0.384863 0.256561 0.649852 3.44615 3.8234C6.69909 7.06636 6.89547 7.25564 7 7.25564C7.10452 7.25564 7.3009 7.06636 10.5538 3.82341Z" fill="#272727"/>
</svg>
