<svg width="17" height="9" viewBox="0 0 17 9" fill="none" xmlns="http://www.w3.org/2000/svg">
<path d="M12.6976 4.60003C16.5351 0.781854 16.8437 0.46304 16.8437 0.349178C16.8437 0.174589 16.6685 -1.5263e-08 16.4932 -3.05261e-08C16.3788 -4.04802e-08 16.0702 0.296042 12.3965 3.95482L8.42187 7.91343L4.44721 3.95481C0.773594 0.29604 0.464918 -1.4261e-06 0.350594 -1.43605e-06C0.175297 -1.45132e-06 -1.53249e-08 0.174587 -3.06499e-08 0.349176C-4.06444e-08 0.463038 0.308676 0.781853 4.14615 4.60003C8.05985 8.50171 8.29612 8.72944 8.42187 8.72944C8.54763 8.72944 8.7839 8.50171 12.6976 4.60003Z" fill="#F0F0F0"/>
</svg>
